<?xml version="1.0" encoding="utf-8"?>
<!-- Generator: Adobe Illustrator 26.0.1, SVG Export Plug-In . SVG Version: 6.00 Build 0)  -->
<svg version="1.1" id="Layer_1" xmlns="http://www.w3.org/2000/svg" xmlns:xlink="http://www.w3.org/1999/xlink" x="0px" y="0px"
	 viewBox="0 0 150 150" style="enable-background:new 0 0 150 150;" xml:space="preserve">
<style type="text/css">
	.st0{fill:#14CC26;}
</style>
<g>
	<path class="st0" d="M75,0C33.6,0,0,33.6,0,75s33.6,75,75,75h18.5l-1.9-1.9L47,103.5l-1.4-1.4c-7-7.3-11.2-17.1-11.2-28
		c0-12.2,5.4-23.1,13.8-30.5c7.1-6.3,16.5-10.1,26.8-10.1c22.4,0,40.6,18.2,40.6,40.6c0,10.3-3.8,19.6-10.1,26.8l24.8,24.8
		l19.7,19.7V75C150,33.6,116.4,0,75,0z"/>
	<path class="st0" d="M73.8,96.1l32.4,32.4c2,2,5.3,2,7.4,0l1.7-1.7c2-2,2-5.3,0-7.4L82.8,87.1c-2-2-5.3-2-7.4,0l-1.7,1.7
		C71.7,90.8,71.7,94.1,73.8,96.1z"/>
	<path class="st0" d="M118.7,140.2l8.8,8.8c1.9,1.9,5.1,1.9,7,0l1.6-1.6c1.9-1.9,1.9-5.1,0-7l-8.8-8.8c-1.9-1.9-5.1-1.9-7,0
		l-1.6,1.6C116.8,135.1,116.8,138.3,118.7,140.2z"/>
	<path class="st0" d="M109.5,139.9L84.6,115c-2-2-5.3-2-7.4,0l-1.7,1.7c-2,2-2,5.3,0,7.4l24.9,24.9c2,2,5.3,2,7.4,0l1.7-1.7
		C111.5,145.3,111.5,142,109.5,139.9z"/>
</g>
</svg>
